<svg xmlns="http://www.w3.org/2000/svg" viewBox="0 0 240 240"><circle cx="120" cy="134.0" r="68.0" fill="#E5913A"/><path d="M 214.24 87.68 L 214.91 91.14 L 214.92 91.18 L 214.92 91.23 L 214.92 91.27 L 214.92 91.31 L 214.91 91.35 L 214.90 91.40 L 214.89 91.44 L 214.88 91.49 L 214.86 91.53 L 214.84 91.58 L 214.82 91.63 L 214.79 91.67 L 214.76 91.72 L 214.73 91.77 L 214.70 91.82 L 214.66 91.87 L 214.62 91.91 L 214.58 91.96 L 214.53 92.01 L 214.48 92.07 L 214.43 92.12 L 214.37 92.17 L 214.32 92.22 L 214.26 92.27 L 214.19 92.33 L 214.13 92.38 L 214.06 92.43 L 213.99 92.49 L 213.91 92.54 L 213.83 92.59 L 213.75 92.65 L 213.67 92.70 L 213.58 92.76 L 213.50 92.82 L 213.40 92.87 L 213.31 92.93 L 213.21 92.99 L 213.11 93.04 L 213.01 93.10 L 212.91 93.16 L 212.80 93.22 L 212.69 93.27 L 212.58 93.33 L 212.46 93.39 L 212.35 93.45 L 212.23 93.51 L 212.10 93.57 L 211.98 93.63 L 211.85 93.69 L 211.72 93.75 L 211.59 93.81 L 211.45 93.87 L 211.32 93.93 L 211.18 93.99 L 211.04 94.05 L 210.89 94.11 L 210.74 94.17 L 210.60 94.23 L 210.44 94.29 L 210.29 94.35 L 210.14 94.41 L 209.98 94.47 L 209.82 94.53 L 209.66 94.59 L 209.49 94.65 L 209.33 94.72 L 209.16 94.78 L 208.99 94.84 L 208.82 94.90 L 208.64 94.96 L 208.46 95.02 L 208.29 95.08 L 208.11 95.14 L 207.92 95.20 L 207.74 95.26 L 207.56 95.33 L 207.37 95.39 L 207.18 95.45 L 206.99 95.51 L 206.80 95.57 L 206.60 95.63 L 206.41 95.69 L 206.21 95.75 L 206.01 95.81 L 205.81 95.87 L 205.61 95.93 L 205.40 95.99 L 205.20 96.04 L 204.99 96.10 L 204.99 96.10 L 204.56 96.22 L 204.13 96.35 L 203.70 96.47 L 203.27 96.59 L 202.84 96.71 L 202.41 96.83 L 201.98 96.95 L 201.54 97.07 L 201.11 97.19 L 200.68 97.31 L 200.24 97.43 L 199.81 97.55 L 199.37 97.68 L 198.94 97.80 L 198.50 97.92 L 198.06 98.04 L 197.62 98.16 L 197.19 98.28 L 196.75 98.40 L 196.31 98.51 L 195.87 98.63 L 195.43 98.75 L 194.99 98.87 L 194.54 98.99 L 194.10 99.11 L 193.66 99.23 L 193.22 99.35 L 192.77 99.47 L 192.33 99.59 L 191.89 99.71 L 191.44 99.82 L 191.00 99.94 L 190.55 100.06 L 190.10 100.18 L 189.66 100.30 L 189.21 100.41 L 188.76 100.53 L 188.31 100.65 L 187.87 100.77 L 187.42 100.89 L 186.97 101.00 L 186.52 101.12 L 186.07 101.24 L 185.62 101.35 L 185.17 101.47 L 184.71 101.59 L 184.26 101.70 L 183.81 101.82 L 183.36 101.94 L 182.90 102.05 L 182.45 102.17 L 182.00 102.28 L 181.54 102.40 L 181.09 102.52 L 180.63 102.63 L 180.17 102.75 L 179.72 102.86 L 179.26 102.98 L 178.80 103.09 L 178.35 103.21 L 177.89 103.32 L 177.43 103.44 L 176.97 103.55 L 176.51 103.67 L 176.05 103.78 L 175.59 103.89 L 175.13 104.01 L 174.67 104.12 L 174.21 104.24 L 173.75 104.35 L 173.29 104.46 L 172.83 104.58 L 172.36 104.69 L 171.90 104.80 L 171.44 104.92 L 170.97 105.03 L 170.51 105.14 L 170.05 105.25 L 169.58 105.37 L 169.12 105.48 L 168.65 105.59 L 168.19 105.70 L 167.72 105.81 L 167.25 105.92 L 166.79 106.04 L 166.32 106.15 L 165.85 106.26 L 165.38 106.37 L 164.92 106.48 L 164.45 106.59 L 163.98 106.70 L 163.51 106.81 L 163.04 106.92 L 162.57 107.03 L 162.10 107.14 L 161.63 107.25 L 161.16 107.36 L 160.69 107.47 L 160.22 107.58 L 159.75 107.69 L 159.28 107.80 L 158.81 107.90 L 158.34 108.01 L 157.86 108.12 L 157.39 108.23 L 156.92 108.34 L 156.44 108.45 L 155.97 108.55 L 155.50 108.66 L 155.02 108.77 L 154.55 108.88 L 154.08 108.98 L 153.60 109.09 L 153.13 109.20 L 152.65 109.30 L 152.18 109.41 L 151.70 109.52 L 151.22 109.62 L 150.75 109.73 L 150.27 109.83 L 149.80 109.94 L 149.32 110.04 L 148.84 110.15 L 148.37 110.25 L 147.89 110.36 L 147.41 110.46 L 146.93 110.57 L 146.46 110.67 L 145.98 110.78 L 145.50 110.88 L 145.02 110.98 L 144.54 111.09 L 144.06 111.19 L 143.58 111.29 L 143.11 111.40 L 142.63 111.50 L 142.15 111.60 L 141.67 111.70 L 141.19 111.81 L 140.71 111.91 L 140.23 112.01 L 139.75 112.11 L 139.27 112.21 L 138.79 112.31 L 138.30 112.41 L 137.82 112.52 L 137.34 112.62 L 136.86 112.72 L 136.38 112.82 L 135.90 112.92 L 135.42 113.02 L 134.94 113.12 L 134.45 113.22 L 133.97 113.32 L 133.49 113.41 L 133.01 113.51 L 132.52 113.61 L 132.04 113.71 L 131.56 113.81 L 131.08 113.91 L 130.59 114.01 L 130.11 114.10 L 129.63 114.20 L 129.15 114.30 L 128.66 114.39 L 128.18 114.49 L 127.70 114.59 L 127.21 114.68 L 126.73 114.78 L 126.25 114.88 L 125.76 114.97 L 125.28 115.07 L 124.80 115.16 L 124.31 115.26 L 123.83 115.35 L 123.34 115.45 L 122.86 115.54 L 122.38 115.64 L 121.89 115.73 L 121.89 115.73 L 121.41 115.83 L 120.92 115.92 L 120.44 116.01 L 119.96 116.11 L 119.47 116.20 L 118.99 116.29 L 118.50 116.39 L 118.02 116.48 L 117.53 116.57 L 117.05 116.66 L 116.57 116.75 L 116.08 116.85 L 115.60 116.94 L 115.11 117.03 L 114.63 117.12 L 114.14 117.21 L 113.66 117.30 L 113.18 117.39 L 112.69 117.48 L 112.21 117.57 L 111.72 117.66 L 111.24 117.75 L 110.75 117.84 L 110.27 117.93 L 109.79 118.02 L 109.30 118.11 L 108.82 118.19 L 108.33 118.28 L 107.85 118.37 L 107.37 118.46 L 106.88 118.54 L 106.40 118.63 L 105.92 118.72 L 105.43 118.80 L 104.95 118.89 L 104.46 118.98 L 103.98 119.06 L 103.50 119.15 L 103.01 119.23 L 102.53 119.32 L 102.05 119.40 L 101.56 119.49 L 101.08 119.57 L 100.60 119.66 L 100.12 119.74 L 99.63 119.83 L 99.15 119.91 L 98.67 119.99 L 98.19 120.08 L 97.70 120.16 L 97.22 120.24 L 96.74 120.32 L 96.26 120.41 L 95.77 120.49 L 95.29 120.57 L 94.81 120.65 L 94.33 120.73 L 93.85 120.81 L 93.37 120.89 L 92.89 120.97 L 92.41 121.05 L 91.92 121.13 L 91.44 121.21 L 90.96 121.29 L 90.48 121.37 L 90.00 121.45 L 89.52 121.53 L 89.04 121.61 L 88.56 121.69 L 88.08 121.76 L 87.60 121.84 L 87.13 121.92 L 86.65 122.00 L 86.17 122.07 L 85.69 122.15 L 85.21 122.23 L 84.73 122.30 L 84.25 122.38 L 83.78 122.46 L 83.30 122.53 L 82.82 122.61 L 82.34 122.68 L 81.87 122.76 L 81.39 122.83 L 80.91 122.90 L 80.44 122.98 L 79.96 123.05 L 79.48 123.12 L 79.01 123.20 L 78.53 123.27 L 78.06 123.34 L 77.58 123.42 L 77.11 123.49 L 76.63 123.56 L 76.16 123.63 L 75.69 123.70 L 75.21 123.77 L 74.74 123.84 L 74.26 123.91 L 73.79 123.98 L 73.32 124.05 L 72.85 124.12 L 72.37 124.19 L 71.90 124.26 L 71.43 124.33 L 70.96 124.40 L 70.49 124.47 L 70.02 124.54 L 69.55 124.60 L 69.08 124.67 L 68.61 124.74 L 68.14 124.81 L 67.67 124.87 L 67.20 124.94 L 66.73 125.01 L 66.26 125.07 L 65.79 125.14 L 65.32 125.20 L 64.86 125.27 L 64.39 125.33 L 63.92 125.40 L 63.46 125.46 L 62.99 125.53 L 62.52 125.59 L 62.06 125.65 L 61.59 125.72 L 61.13 125.78 L 60.66 125.84 L 60.20 125.90 L 59.73 125.97 L 59.27 126.03 L 58.81 126.09 L 58.35 126.15 L 57.88 126.21 L 57.42 126.27 L 56.96 126.33 L 56.50 126.39 L 56.04 126.45 L 55.58 126.51 L 55.12 126.57 L 54.66 126.63 L 54.20 126.69 L 53.74 126.75 L 53.28 126.81 L 52.82 126.86 L 52.36 126.92 L 51.90 126.98 L 51.45 127.04 L 50.99 127.09 L 50.53 127.15 L 50.08 127.21 L 49.62 127.26 L 49.17 127.32 L 48.71 127.37 L 48.26 127.43 L 47.80 127.48 L 47.35 127.54 L 46.90 127.59 L 46.45 127.64 L 45.99 127.70 L 45.54 127.75 L 45.09 127.80 L 44.64 127.86 L 44.19 127.91 L 43.74 127.96 L 43.29 128.01 L 42.84 128.07 L 42.39 128.12 L 41.94 128.17 L 41.50 128.22 L 41.05 128.27 L 40.60 128.32 L 40.16 128.37 L 39.71 128.42 L 39.27 128.47 L 38.82 128.52 L 38.38 128.57 L 37.93 128.61 L 37.49 128.66 L 37.49 128.66 L 37.28 128.69 L 37.06 128.71 L 36.85 128.73 L 36.64 128.75 L 36.44 128.77 L 36.23 128.79 L 36.02 128.81 L 35.82 128.82 L 35.62 128.84 L 35.42 128.86 L 35.22 128.87 L 35.02 128.89 L 34.82 128.90 L 34.63 128.91 L 34.43 128.93 L 34.24 128.94 L 34.05 128.95 L 33.86 128.96 L 33.68 128.97 L 33.49 128.98 L 33.31 128.99 L 33.13 128.99 L 32.95 129.00 L 32.77 129.01 L 32.60 129.01 L 32.43 129.01 L 32.26 129.02 L 32.09 129.02 L 31.92 129.02 L 31.75 129.02 L 31.59 129.02 L 31.43 129.02 L 31.27 129.02 L 31.12 129.02 L 30.96 129.02 L 30.81 129.01 L 30.66 129.01 L 30.51 129.00 L 30.37 129.00 L 30.22 128.99 L 30.08 128.98 L 29.95 128.98 L 29.81 128.97 L 29.68 128.96 L 29.55 128.95 L 29.42 128.94 L 29.29 128.92 L 29.17 128.91 L 29.05 128.90 L 28.93 128.88 L 28.81 128.87 L 28.70 128.85 L 28.59 128.84 L 28.48 128.82 L 28.37 128.80 L 28.27 128.78 L 28.17 128.76 L 28.07 128.74 L 27.98 128.72 L 27.89 128.70 L 27.80 128.68 L 27.71 128.65 L 27.63 128.63 L 27.54 128.61 L 27.47 128.58 L 27.39 128.55 L 27.32 128.53 L 27.25 128.50 L 27.18 128.47 L 27.11 128.44 L 27.05 128.42 L 26.99 128.39 L 26.94 128.35 L 26.89 128.32 L 26.83 128.29 L 26.79 128.26 L 26.74 128.23 L 26.70 128.19 L 26.66 128.16 L 26.63 128.12 L 26.59 128.09 L 26.56 128.05 L 26.54 128.01 L 26.51 127.98 L 26.49 127.94 L 26.47 127.90 L 26.46 127.86 L 26.45 127.82 L 26.44 127.78 L 25.76 124.32 L 25.76 124.32 L 25.09 120.86 L 25.08 120.82 L 25.08 120.77 L 25.08 120.73 L 25.08 120.69 L 25.09 120.65 L 25.10 120.60 L 25.11 120.56 L 25.12 120.51 L 25.14 120.47 L 25.16 120.42 L 25.18 120.37 L 25.21 120.33 L 25.24 120.28 L 25.27 120.23 L 25.30 120.18 L 25.34 120.13 L 25.38 120.09 L 25.42 120.04 L 25.47 119.99 L 25.52 119.93 L 25.57 119.88 L 25.63 119.83 L 25.68 119.78 L 25.74 119.73 L 25.81 119.67 L 25.87 119.62 L 25.94 119.57 L 26.01 119.51 L 26.09 119.46 L 26.17 119.41 L 26.25 119.35 L 26.33 119.30 L 26.42 119.24 L 26.50 119.18 L 26.60 119.13 L 26.69 119.07 L 26.79 119.01 L 26.89 118.96 L 26.99 118.90 L 27.09 118.84 L 27.20 118.78 L 27.31 118.73 L 27.42 118.67 L 27.54 118.61 L 27.65 118.55 L 27.77 118.49 L 27.90 118.43 L 28.02 118.37 L 28.15 118.31 L 28.28 118.25 L 28.41 118.19 L 28.55 118.13 L 28.68 118.07 L 28.82 118.01 L 28.96 117.95 L 29.11 117.89 L 29.26 117.83 L 29.40 117.77 L 29.56 117.71 L 29.71 117.65 L 29.86 117.59 L 30.02 117.53 L 30.18 117.47 L 30.34 117.41 L 30.51 117.35 L 30.67 117.28 L 30.84 117.22 L 31.01 117.16 L 31.18 117.10 L 31.36 117.04 L 31.54 116.98 L 31.71 116.92 L 31.89 116.86 L 32.08 116.80 L 32.26 116.74 L 32.44 116.67 L 32.63 116.61 L 32.82 116.55 L 33.01 116.49 L 33.20 116.43 L 33.40 116.37 L 33.59 116.31 L 33.79 116.25 L 33.99 116.19 L 34.19 116.13 L 34.39 116.07 L 34.60 116.01 L 34.80 115.96 L 35.01 115.90 L 35.01 115.90 L 35.44 115.78 L 35.87 115.65 L 36.30 115.53 L 36.73 115.41 L 37.16 115.29 L 37.59 115.17 L 38.02 115.05 L 38.46 114.93 L 38.89 114.81 L 39.32 114.69 L 39.76 114.57 L 40.19 114.45 L 40.63 114.32 L 41.06 114.20 L 41.50 114.08 L 41.94 113.96 L 42.38 113.84 L 42.81 113.72 L 43.25 113.60 L 43.69 113.49 L 44.13 113.37 L 44.57 113.25 L 45.01 113.13 L 45.46 113.01 L 45.90 112.89 L 46.34 112.77 L 46.78 112.65 L 47.23 112.53 L 47.67 112.41 L 48.11 112.29 L 48.56 112.18 L 49.00 112.06 L 49.45 111.94 L 49.90 111.82 L 50.34 111.70 L 50.79 111.59 L 51.24 111.47 L 51.69 111.35 L 52.13 111.23 L 52.58 111.11 L 53.03 111.00 L 53.48 110.88 L 53.93 110.76 L 54.38 110.65 L 54.83 110.53 L 55.29 110.41 L 55.74 110.30 L 56.19 110.18 L 56.64 110.06 L 57.10 109.95 L 57.55 109.83 L 58.00 109.72 L 58.46 109.60 L 58.91 109.48 L 59.37 109.37 L 59.83 109.25 L 60.28 109.14 L 60.74 109.02 L 61.20 108.91 L 61.65 108.79 L 62.11 108.68 L 62.57 108.56 L 63.03 108.45 L 63.49 108.33 L 63.95 108.22 L 64.41 108.11 L 64.87 107.99 L 65.33 107.88 L 65.79 107.76 L 66.25 107.65 L 66.71 107.54 L 67.17 107.42 L 67.64 107.31 L 68.10 107.20 L 68.56 107.08 L 69.03 106.97 L 69.49 106.86 L 69.95 106.75 L 70.42 106.63 L 70.88 106.52 L 71.35 106.41 L 71.81 106.30 L 72.28 106.19 L 72.75 106.08 L 73.21 105.96 L 73.68 105.85 L 74.15 105.74 L 74.62 105.63 L 75.08 105.52 L 75.55 105.41 L 76.02 105.30 L 76.49 105.19 L 76.96 105.08 L 77.43 104.97 L 77.90 104.86 L 78.37 104.75 L 78.84 104.64 L 79.31 104.53 L 79.78 104.42 L 80.25 104.31 L 80.72 104.20 L 81.19 104.10 L 81.66 103.99 L 82.14 103.88 L 82.61 103.77 L 83.08 103.66 L 83.56 103.55 L 84.03 103.45 L 84.50 103.34 L 84.98 103.23 L 85.45 103.12 L 85.92 103.02 L 86.40 102.91 L 86.87 102.80 L 87.35 102.70 L 87.82 102.59 L 88.30 102.48 L 88.78 102.38 L 89.25 102.27 L 89.73 102.17 L 90.20 102.06 L 90.68 101.96 L 91.16 101.85 L 91.63 101.75 L 92.11 101.64 L 92.59 101.54 L 93.07 101.43 L 93.54 101.33 L 94.02 101.22 L 94.50 101.12 L 94.98 101.02 L 95.46 100.91 L 95.94 100.81 L 96.42 100.71 L 96.89 100.60 L 97.37 100.50 L 97.85 100.40 L 98.33 100.30 L 98.81 100.19 L 99.29 100.09 L 99.77 99.99 L 100.25 99.89 L 100.73 99.79 L 101.21 99.69 L 101.70 99.59 L 102.18 99.48 L 102.66 99.38 L 103.14 99.28 L 103.62 99.18 L 104.10 99.08 L 104.58 98.98 L 105.06 98.88 L 105.55 98.78 L 106.03 98.68 L 106.51 98.59 L 106.99 98.49 L 107.48 98.39 L 107.96 98.29 L 108.44 98.19 L 108.92 98.09 L 109.41 97.99 L 109.89 97.90 L 110.37 97.80 L 110.85 97.70 L 111.34 97.61 L 111.82 97.51 L 112.30 97.41 L 112.79 97.32 L 113.27 97.22 L 113.75 97.12 L 114.24 97.03 L 114.72 96.93 L 115.20 96.84 L 115.69 96.74 L 116.17 96.65 L 116.66 96.55 L 117.14 96.46 L 117.62 96.36 L 118.11 96.27 L 118.11 96.27 L 118.59 96.17 L 119.08 96.08 L 119.56 95.99 L 120.04 95.89 L 120.53 95.80 L 121.01 95.71 L 121.50 95.61 L 121.98 95.52 L 122.47 95.43 L 122.95 95.34 L 123.43 95.25 L 123.92 95.15 L 124.40 95.06 L 124.89 94.97 L 125.37 94.88 L 125.86 94.79 L 126.34 94.70 L 126.82 94.61 L 127.31 94.52 L 127.79 94.43 L 128.28 94.34 L 128.76 94.25 L 129.25 94.16 L 129.73 94.07 L 130.21 93.98 L 130.70 93.89 L 131.18 93.81 L 131.67 93.72 L 132.15 93.63 L 132.63 93.54 L 133.12 93.46 L 133.60 93.37 L 134.08 93.28 L 134.57 93.20 L 135.05 93.11 L 135.54 93.02 L 136.02 92.94 L 136.50 92.85 L 136.99 92.77 L 137.47 92.68 L 137.95 92.60 L 138.44 92.51 L 138.92 92.43 L 139.40 92.34 L 139.88 92.26 L 140.37 92.17 L 140.85 92.09 L 141.33 92.01 L 141.81 91.92 L 142.30 91.84 L 142.78 91.76 L 143.26 91.68 L 143.74 91.59 L 144.23 91.51 L 144.71 91.43 L 145.19 91.35 L 145.67 91.27 L 146.15 91.19 L 146.63 91.11 L 147.11 91.03 L 147.59 90.95 L 148.08 90.87 L 148.56 90.79 L 149.04 90.71 L 149.52 90.63 L 150.00 90.55 L 150.48 90.47 L 150.96 90.39 L 151.44 90.31 L 151.92 90.24 L 152.40 90.16 L 152.87 90.08 L 153.35 90.00 L 153.83 89.93 L 154.31 89.85 L 154.79 89.77 L 155.27 89.70 L 155.75 89.62 L 156.22 89.54 L 156.70 89.47 L 157.18 89.39 L 157.66 89.32 L 158.13 89.24 L 158.61 89.17 L 159.09 89.10 L 159.56 89.02 L 160.04 88.95 L 160.52 88.88 L 160.99 88.80 L 161.47 88.73 L 161.94 88.66 L 162.42 88.58 L 162.89 88.51 L 163.37 88.44 L 163.84 88.37 L 164.31 88.30 L 164.79 88.23 L 165.26 88.16 L 165.74 88.09 L 166.21 88.02 L 166.68 87.95 L 167.15 87.88 L 167.63 87.81 L 168.10 87.74 L 168.57 87.67 L 169.04 87.60 L 169.51 87.53 L 169.98 87.46 L 170.45 87.40 L 170.92 87.33 L 171.39 87.26 L 171.86 87.19 L 172.33 87.13 L 172.80 87.06 L 173.27 86.99 L 173.74 86.93 L 174.21 86.86 L 174.68 86.80 L 175.14 86.73 L 175.61 86.67 L 176.08 86.60 L 176.54 86.54 L 177.01 86.47 L 177.48 86.41 L 177.94 86.35 L 178.41 86.28 L 178.87 86.22 L 179.34 86.16 L 179.80 86.10 L 180.27 86.03 L 180.73 85.97 L 181.19 85.91 L 181.65 85.85 L 182.12 85.79 L 182.58 85.73 L 183.04 85.67 L 183.50 85.61 L 183.96 85.55 L 184.42 85.49 L 184.88 85.43 L 185.34 85.37 L 185.80 85.31 L 186.26 85.25 L 186.72 85.19 L 187.18 85.14 L 187.64 85.08 L 188.10 85.02 L 188.55 84.96 L 189.01 84.91 L 189.47 84.85 L 189.92 84.79 L 190.38 84.74 L 190.83 84.68 L 191.29 84.63 L 191.74 84.57 L 192.20 84.52 L 192.65 84.46 L 193.10 84.41 L 193.55 84.36 L 194.01 84.30 L 194.46 84.25 L 194.91 84.20 L 195.36 84.14 L 195.81 84.09 L 196.26 84.04 L 196.71 83.99 L 197.16 83.93 L 197.61 83.88 L 198.06 83.83 L 198.50 83.78 L 198.95 83.73 L 199.40 83.68 L 199.84 83.63 L 200.29 83.58 L 200.73 83.53 L 201.18 83.48 L 201.62 83.43 L 202.07 83.39 L 202.51 83.34 L 202.51 83.34 L 202.72 83.31 L 202.94 83.29 L 203.15 83.27 L 203.36 83.25 L 203.56 83.23 L 203.77 83.21 L 203.98 83.19 L 204.18 83.18 L 204.38 83.16 L 204.58 83.14 L 204.78 83.13 L 204.98 83.11 L 205.18 83.10 L 205.37 83.09 L 205.57 83.07 L 205.76 83.06 L 205.95 83.05 L 206.14 83.04 L 206.32 83.03 L 206.51 83.02 L 206.69 83.01 L 206.87 83.01 L 207.05 83.00 L 207.23 82.99 L 207.40 82.99 L 207.57 82.99 L 207.74 82.98 L 207.91 82.98 L 208.08 82.98 L 208.25 82.98 L 208.41 82.98 L 208.57 82.98 L 208.73 82.98 L 208.88 82.98 L 209.04 82.98 L 209.19 82.99 L 209.34 82.99 L 209.49 83.00 L 209.63 83.00 L 209.78 83.01 L 209.92 83.02 L 210.05 83.02 L 210.19 83.03 L 210.32 83.04 L 210.45 83.05 L 210.58 83.06 L 210.71 83.08 L 210.83 83.09 L 210.95 83.10 L 211.07 83.12 L 211.19 83.13 L 211.30 83.15 L 211.41 83.16 L 211.52 83.18 L 211.63 83.20 L 211.73 83.22 L 211.83 83.24 L 211.93 83.26 L 212.02 83.28 L 212.11 83.30 L 212.20 83.32 L 212.29 83.35 L 212.37 83.37 L 212.46 83.39 L 212.53 83.42 L 212.61 83.45 L 212.68 83.47 L 212.75 83.50 L 212.82 83.53 L 212.89 83.56 L 212.95 83.58 L 213.01 83.61 L 213.06 83.65 L 213.11 83.68 L 213.17 83.71 L 213.21 83.74 L 213.26 83.77 L 213.30 83.81 L 213.34 83.84 L 213.37 83.88 L 213.41 83.91 L 213.44 83.95 L 213.46 83.99 L 213.49 84.02 L 213.51 84.06 L 213.53 84.10 L 213.54 84.14 L 213.55 84.18 L 213.56 84.22 L 214.24 87.68 Z" fill="#152834"/><path d="M 209.82 88.54 L 210.46 91.84 L 210.47 91.88 L 210.47 91.92 L 210.47 91.96 L 210.47 92.00 L 210.46 92.04 L 210.45 92.08 L 210.44 92.12 L 210.43 92.17 L 210.41 92.21 L 210.40 92.26 L 210.37 92.30 L 210.35 92.34 L 210.32 92.39 L 210.29 92.44 L 210.26 92.48 L 210.22 92.53 L 210.18 92.57 L 210.14 92.62 L 210.10 92.67 L 210.05 92.72 L 210.00 92.77 L 209.95 92.82 L 209.90 92.87 L 209.84 92.92 L 209.78 92.97 L 209.71 93.02 L 209.65 93.07 L 209.58 93.12 L 209.51 93.17 L 209.43 93.22 L 209.36 93.28 L 209.28 93.33 L 209.20 93.38 L 209.11 93.43 L 209.03 93.49 L 208.94 93.54 L 208.84 93.60 L 208.75 93.65 L 208.65 93.70 L 208.55 93.76 L 208.45 93.81 L 208.35 93.87 L 208.24 93.93 L 208.13 93.98 L 208.02 94.04 L 207.90 94.09 L 207.79 94.15 L 207.67 94.21 L 207.55 94.26 L 207.42 94.32 L 207.30 94.38 L 207.17 94.43 L 207.04 94.49 L 206.90 94.55 L 206.77 94.61 L 206.63 94.66 L 206.49 94.72 L 206.35 94.78 L 206.21 94.84 L 206.06 94.90 L 205.91 94.95 L 205.76 95.01 L 205.61 95.07 L 205.45 95.13 L 205.30 95.19 L 205.14 95.24 L 204.98 95.30 L 204.82 95.36 L 204.65 95.42 L 204.49 95.48 L 204.32 95.54 L 204.15 95.59 L 203.98 95.65 L 203.80 95.71 L 203.63 95.77 L 203.45 95.83 L 203.27 95.88 L 203.09 95.94 L 202.91 96.00 L 202.73 96.06 L 202.54 96.11 L 202.36 96.17 L 202.17 96.23 L 201.98 96.28 L 201.79 96.34 L 201.59 96.40 L 201.40 96.45 L 201.20 96.51 L 201.01 96.57 L 201.01 96.57 L 200.60 96.68 L 200.19 96.80 L 199.78 96.91 L 199.37 97.03 L 198.96 97.14 L 198.55 97.26 L 198.13 97.38 L 197.72 97.49 L 197.31 97.61 L 196.89 97.72 L 196.48 97.84 L 196.07 97.95 L 195.65 98.07 L 195.24 98.18 L 194.82 98.29 L 194.40 98.41 L 193.98 98.52 L 193.57 98.64 L 193.15 98.75 L 192.73 98.87 L 192.31 98.98 L 191.89 99.09 L 191.47 99.21 L 191.05 99.32 L 190.63 99.43 L 190.21 99.55 L 189.79 99.66 L 189.36 99.77 L 188.94 99.89 L 188.52 100.00 L 188.09 100.11 L 187.67 100.23 L 187.24 100.34 L 186.82 100.45 L 186.39 100.56 L 185.97 100.68 L 185.54 100.79 L 185.11 100.90 L 184.69 101.01 L 184.26 101.12 L 183.83 101.24 L 183.40 101.35 L 182.97 101.46 L 182.54 101.57 L 182.11 101.68 L 181.68 101.79 L 181.25 101.91 L 180.82 102.02 L 180.39 102.13 L 179.95 102.24 L 179.52 102.35 L 179.09 102.46 L 178.66 102.57 L 178.22 102.68 L 177.79 102.79 L 177.35 102.90 L 176.92 103.01 L 176.48 103.12 L 176.05 103.23 L 175.61 103.34 L 175.17 103.45 L 174.74 103.56 L 174.30 103.67 L 173.86 103.78 L 173.43 103.88 L 172.99 103.99 L 172.55 104.10 L 172.11 104.21 L 171.67 104.32 L 171.23 104.43 L 170.79 104.54 L 170.35 104.64 L 169.91 104.75 L 169.47 104.86 L 169.03 104.97 L 168.58 105.07 L 168.14 105.18 L 167.70 105.29 L 167.26 105.39 L 166.81 105.50 L 166.37 105.61 L 165.93 105.71 L 165.48 105.82 L 165.04 105.93 L 164.59 106.03 L 164.15 106.14 L 163.70 106.25 L 163.26 106.35 L 162.81 106.46 L 162.37 106.56 L 161.92 106.67 L 161.47 106.77 L 161.02 106.88 L 160.58 106.98 L 160.13 107.09 L 159.68 107.19 L 159.23 107.30 L 158.78 107.40 L 158.34 107.50 L 157.89 107.61 L 157.44 107.71 L 156.99 107.82 L 156.54 107.92 L 156.09 108.02 L 155.64 108.13 L 155.19 108.23 L 154.74 108.33 L 154.29 108.43 L 153.83 108.54 L 153.38 108.64 L 152.93 108.74 L 152.48 108.84 L 152.03 108.94 L 151.57 109.05 L 151.12 109.15 L 150.67 109.25 L 150.21 109.35 L 149.76 109.45 L 149.31 109.55 L 148.85 109.65 L 148.40 109.75 L 147.95 109.85 L 147.49 109.95 L 147.04 110.05 L 146.58 110.15 L 146.13 110.25 L 145.67 110.35 L 145.22 110.45 L 144.76 110.55 L 144.30 110.65 L 143.85 110.75 L 143.39 110.85 L 142.94 110.95 L 142.48 111.04 L 142.02 111.14 L 141.57 111.24 L 141.11 111.34 L 140.65 111.44 L 140.19 111.53 L 139.74 111.63 L 139.28 111.73 L 138.82 111.82 L 138.36 111.92 L 137.90 112.02 L 137.45 112.11 L 136.99 112.21 L 136.53 112.31 L 136.07 112.40 L 135.61 112.50 L 135.15 112.59 L 134.69 112.69 L 134.24 112.78 L 133.78 112.88 L 133.32 112.97 L 132.86 113.07 L 132.40 113.16 L 131.94 113.26 L 131.48 113.35 L 131.02 113.44 L 130.56 113.54 L 130.10 113.63 L 129.64 113.72 L 129.18 113.82 L 128.72 113.91 L 128.26 114.00 L 127.80 114.09 L 127.34 114.19 L 126.87 114.28 L 126.41 114.37 L 125.95 114.46 L 125.49 114.55 L 125.03 114.64 L 124.57 114.73 L 124.11 114.83 L 123.65 114.92 L 123.19 115.01 L 122.73 115.10 L 122.26 115.19 L 121.80 115.28 L 121.80 115.28 L 121.34 115.37 L 120.88 115.46 L 120.42 115.54 L 119.96 115.63 L 119.50 115.72 L 119.03 115.81 L 118.57 115.90 L 118.11 115.99 L 117.65 116.08 L 117.19 116.16 L 116.73 116.25 L 116.27 116.34 L 115.80 116.42 L 115.34 116.51 L 114.88 116.60 L 114.42 116.68 L 113.96 116.77 L 113.50 116.86 L 113.03 116.94 L 112.57 117.03 L 112.11 117.11 L 111.65 117.20 L 111.19 117.28 L 110.73 117.37 L 110.27 117.45 L 109.80 117.54 L 109.34 117.62 L 108.88 117.71 L 108.42 117.79 L 107.96 117.87 L 107.50 117.96 L 107.04 118.04 L 106.58 118.12 L 106.11 118.20 L 105.65 118.29 L 105.19 118.37 L 104.73 118.45 L 104.27 118.53 L 103.81 118.61 L 103.35 118.70 L 102.89 118.78 L 102.43 118.86 L 101.97 118.94 L 101.51 119.02 L 101.05 119.10 L 100.59 119.18 L 100.13 119.26 L 99.67 119.34 L 99.21 119.42 L 98.75 119.50 L 98.29 119.57 L 97.83 119.65 L 97.37 119.73 L 96.91 119.81 L 96.45 119.89 L 95.99 119.96 L 95.53 120.04 L 95.07 120.12 L 94.62 120.20 L 94.16 120.27 L 93.70 120.35 L 93.24 120.42 L 92.78 120.50 L 92.32 120.58 L 91.87 120.65 L 91.41 120.73 L 90.95 120.80 L 90.49 120.88 L 90.04 120.95 L 89.58 121.03 L 89.12 121.10 L 88.67 121.17 L 88.21 121.25 L 87.75 121.32 L 87.30 121.39 L 86.84 121.47 L 86.39 121.54 L 85.93 121.61 L 85.47 121.68 L 85.02 121.76 L 84.56 121.83 L 84.11 121.90 L 83.65 121.97 L 83.20 122.04 L 82.75 122.11 L 82.29 122.18 L 81.84 122.25 L 81.38 122.32 L 80.93 122.39 L 80.48 122.46 L 80.02 122.53 L 79.57 122.60 L 79.12 122.67 L 78.67 122.74 L 78.21 122.80 L 77.76 122.87 L 77.31 122.94 L 76.86 123.01 L 76.41 123.07 L 75.96 123.14 L 75.51 123.21 L 75.06 123.27 L 74.61 123.34 L 74.16 123.41 L 73.71 123.47 L 73.26 123.54 L 72.81 123.60 L 72.36 123.67 L 71.91 123.73 L 71.46 123.80 L 71.01 123.86 L 70.57 123.92 L 70.12 123.99 L 69.67 124.05 L 69.23 124.12 L 68.78 124.18 L 68.33 124.24 L 67.89 124.30 L 67.44 124.36 L 67.00 124.43 L 66.55 124.49 L 66.11 124.55 L 65.66 124.61 L 65.22 124.67 L 64.77 124.73 L 64.33 124.79 L 63.89 124.85 L 63.44 124.91 L 63.00 124.97 L 62.56 125.03 L 62.12 125.09 L 61.68 125.15 L 61.24 125.21 L 60.79 125.26 L 60.35 125.32 L 59.91 125.38 L 59.47 125.44 L 59.03 125.49 L 58.60 125.55 L 58.16 125.61 L 57.72 125.66 L 57.28 125.72 L 56.84 125.78 L 56.41 125.83 L 55.97 125.89 L 55.53 125.94 L 55.10 126.00 L 54.66 126.05 L 54.23 126.10 L 53.79 126.16 L 53.36 126.21 L 52.92 126.26 L 52.49 126.32 L 52.05 126.37 L 51.62 126.42 L 51.19 126.48 L 50.76 126.53 L 50.32 126.58 L 49.89 126.63 L 49.46 126.68 L 49.03 126.73 L 48.60 126.78 L 48.17 126.83 L 47.74 126.88 L 47.31 126.93 L 46.89 126.98 L 46.46 127.03 L 46.03 127.08 L 45.60 127.13 L 45.18 127.18 L 44.75 127.23 L 44.32 127.27 L 43.90 127.32 L 43.47 127.37 L 43.05 127.41 L 42.63 127.46 L 42.20 127.51 L 41.78 127.55 L 41.36 127.60 L 41.36 127.60 L 41.15 127.62 L 40.95 127.64 L 40.75 127.66 L 40.55 127.68 L 40.35 127.70 L 40.16 127.72 L 39.96 127.74 L 39.77 127.75 L 39.57 127.77 L 39.38 127.79 L 39.19 127.80 L 39.00 127.81 L 38.81 127.83 L 38.63 127.84 L 38.44 127.85 L 38.26 127.86 L 38.08 127.87 L 37.90 127.88 L 37.72 127.89 L 37.55 127.90 L 37.37 127.91 L 37.20 127.92 L 37.03 127.92 L 36.86 127.93 L 36.70 127.93 L 36.53 127.94 L 36.37 127.94 L 36.21 127.94 L 36.05 127.94 L 35.89 127.94 L 35.74 127.94 L 35.58 127.94 L 35.43 127.94 L 35.28 127.94 L 35.13 127.94 L 34.99 127.93 L 34.85 127.93 L 34.71 127.93 L 34.57 127.92 L 34.43 127.91 L 34.30 127.91 L 34.17 127.90 L 34.04 127.89 L 33.91 127.88 L 33.79 127.87 L 33.66 127.86 L 33.54 127.85 L 33.42 127.84 L 33.31 127.82 L 33.20 127.81 L 33.09 127.80 L 32.98 127.78 L 32.87 127.76 L 32.77 127.75 L 32.67 127.73 L 32.57 127.71 L 32.47 127.70 L 32.38 127.68 L 32.29 127.66 L 32.20 127.64 L 32.12 127.61 L 32.04 127.59 L 31.96 127.57 L 31.88 127.55 L 31.80 127.52 L 31.73 127.50 L 31.66 127.47 L 31.59 127.45 L 31.53 127.42 L 31.47 127.39 L 31.41 127.36 L 31.35 127.34 L 31.30 127.31 L 31.25 127.28 L 31.20 127.25 L 31.16 127.22 L 31.11 127.18 L 31.07 127.15 L 31.04 127.12 L 31.00 127.09 L 30.97 127.05 L 30.94 127.02 L 30.92 126.98 L 30.90 126.95 L 30.87 126.91 L 30.86 126.87 L 30.84 126.83 L 30.83 126.80 L 30.82 126.76 L 30.18 123.46 L 30.18 123.46 L 29.54 120.16 L 29.53 120.12 L 29.53 120.08 L 29.53 120.04 L 29.53 120.00 L 29.54 119.96 L 29.55 119.92 L 29.56 119.88 L 29.57 119.83 L 29.59 119.79 L 29.60 119.74 L 29.63 119.70 L 29.65 119.66 L 29.68 119.61 L 29.71 119.56 L 29.74 119.52 L 29.78 119.47 L 29.82 119.43 L 29.86 119.38 L 29.90 119.33 L 29.95 119.28 L 30.00 119.23 L 30.05 119.18 L 30.10 119.13 L 30.16 119.08 L 30.22 119.03 L 30.29 118.98 L 30.35 118.93 L 30.42 118.88 L 30.49 118.83 L 30.57 118.78 L 30.64 118.72 L 30.72 118.67 L 30.80 118.62 L 30.89 118.57 L 30.97 118.51 L 31.06 118.46 L 31.16 118.40 L 31.25 118.35 L 31.35 118.30 L 31.45 118.24 L 31.55 118.19 L 31.65 118.13 L 31.76 118.07 L 31.87 118.02 L 31.98 117.96 L 32.10 117.91 L 32.21 117.85 L 32.33 117.79 L 32.45 117.74 L 32.58 117.68 L 32.70 117.62 L 32.83 117.57 L 32.96 117.51 L 33.10 117.45 L 33.23 117.39 L 33.37 117.34 L 33.51 117.28 L 33.65 117.22 L 33.79 117.16 L 33.94 117.10 L 34.09 117.05 L 34.24 116.99 L 34.39 116.93 L 34.55 116.87 L 34.70 116.81 L 34.86 116.76 L 35.02 116.70 L 35.18 116.64 L 35.35 116.58 L 35.51 116.52 L 35.68 116.46 L 35.85 116.41 L 36.02 116.35 L 36.20 116.29 L 36.37 116.23 L 36.55 116.17 L 36.73 116.12 L 36.91 116.06 L 37.09 116.00 L 37.27 115.94 L 37.46 115.89 L 37.64 115.83 L 37.83 115.77 L 38.02 115.72 L 38.21 115.66 L 38.41 115.60 L 38.60 115.55 L 38.80 115.49 L 38.99 115.43 L 38.99 115.43 L 39.40 115.32 L 39.81 115.20 L 40.22 115.09 L 40.63 114.97 L 41.04 114.86 L 41.45 114.74 L 41.87 114.62 L 42.28 114.51 L 42.69 114.39 L 43.11 114.28 L 43.52 114.16 L 43.93 114.05 L 44.35 113.93 L 44.76 113.82 L 45.18 113.71 L 45.60 113.59 L 46.02 113.48 L 46.43 113.36 L 46.85 113.25 L 47.27 113.13 L 47.69 113.02 L 48.11 112.91 L 48.53 112.79 L 48.95 112.68 L 49.37 112.57 L 49.79 112.45 L 50.21 112.34 L 50.64 112.23 L 51.06 112.11 L 51.48 112.00 L 51.91 111.89 L 52.33 111.77 L 52.76 111.66 L 53.18 111.55 L 53.61 111.44 L 54.03 111.32 L 54.46 111.21 L 54.89 111.10 L 55.31 110.99 L 55.74 110.88 L 56.17 110.76 L 56.60 110.65 L 57.03 110.54 L 57.46 110.43 L 57.89 110.32 L 58.32 110.21 L 58.75 110.09 L 59.18 109.98 L 59.61 109.87 L 60.05 109.76 L 60.48 109.65 L 60.91 109.54 L 61.34 109.43 L 61.78 109.32 L 62.21 109.21 L 62.65 109.10 L 63.08 108.99 L 63.52 108.88 L 63.95 108.77 L 64.39 108.66 L 64.83 108.55 L 65.26 108.44 L 65.70 108.33 L 66.14 108.22 L 66.57 108.12 L 67.01 108.01 L 67.45 107.90 L 67.89 107.79 L 68.33 107.68 L 68.77 107.57 L 69.21 107.46 L 69.65 107.36 L 70.09 107.25 L 70.53 107.14 L 70.97 107.03 L 71.42 106.93 L 71.86 106.82 L 72.30 106.71 L 72.74 106.61 L 73.19 106.50 L 73.63 106.39 L 74.07 106.29 L 74.52 106.18 L 74.96 106.07 L 75.41 105.97 L 75.85 105.86 L 76.30 105.75 L 76.74 105.65 L 77.19 105.54 L 77.63 105.44 L 78.08 105.33 L 78.53 105.23 L 78.98 105.12 L 79.42 105.02 L 79.87 104.91 L 80.32 104.81 L 80.77 104.70 L 81.22 104.60 L 81.66 104.50 L 82.11 104.39 L 82.56 104.29 L 83.01 104.18 L 83.46 104.08 L 83.91 103.98 L 84.36 103.87 L 84.81 103.77 L 85.26 103.67 L 85.71 103.57 L 86.17 103.46 L 86.62 103.36 L 87.07 103.26 L 87.52 103.16 L 87.97 103.06 L 88.43 102.95 L 88.88 102.85 L 89.33 102.75 L 89.79 102.65 L 90.24 102.55 L 90.69 102.45 L 91.15 102.35 L 91.60 102.25 L 92.05 102.15 L 92.51 102.05 L 92.96 101.95 L 93.42 101.85 L 93.87 101.75 L 94.33 101.65 L 94.78 101.55 L 95.24 101.45 L 95.70 101.35 L 96.15 101.25 L 96.61 101.15 L 97.06 101.05 L 97.52 100.96 L 97.98 100.86 L 98.43 100.76 L 98.89 100.66 L 99.35 100.56 L 99.81 100.47 L 100.26 100.37 L 100.72 100.27 L 101.18 100.18 L 101.64 100.08 L 102.10 99.98 L 102.55 99.89 L 103.01 99.79 L 103.47 99.69 L 103.93 99.60 L 104.39 99.50 L 104.85 99.41 L 105.31 99.31 L 105.76 99.22 L 106.22 99.12 L 106.68 99.03 L 107.14 98.93 L 107.60 98.84 L 108.06 98.74 L 108.52 98.65 L 108.98 98.56 L 109.44 98.46 L 109.90 98.37 L 110.36 98.28 L 110.82 98.18 L 111.28 98.09 L 111.74 98.00 L 112.20 97.91 L 112.66 97.81 L 113.13 97.72 L 113.59 97.63 L 114.05 97.54 L 114.51 97.45 L 114.97 97.36 L 115.43 97.27 L 115.89 97.17 L 116.35 97.08 L 116.81 96.99 L 117.27 96.90 L 117.74 96.81 L 118.20 96.72 L 118.20 96.72 L 118.66 96.63 L 119.12 96.54 L 119.58 96.46 L 120.04 96.37 L 120.50 96.28 L 120.97 96.19 L 121.43 96.10 L 121.89 96.01 L 122.35 95.92 L 122.81 95.84 L 123.27 95.75 L 123.73 95.66 L 124.20 95.58 L 124.66 95.49 L 125.12 95.40 L 125.58 95.32 L 126.04 95.23 L 126.50 95.14 L 126.97 95.06 L 127.43 94.97 L 127.89 94.89 L 128.35 94.80 L 128.81 94.72 L 129.27 94.63 L 129.73 94.55 L 130.20 94.46 L 130.66 94.38 L 131.12 94.29 L 131.58 94.21 L 132.04 94.13 L 132.50 94.04 L 132.96 93.96 L 133.42 93.88 L 133.89 93.80 L 134.35 93.71 L 134.81 93.63 L 135.27 93.55 L 135.73 93.47 L 136.19 93.39 L 136.65 93.30 L 137.11 93.22 L 137.57 93.14 L 138.03 93.06 L 138.49 92.98 L 138.95 92.90 L 139.41 92.82 L 139.87 92.74 L 140.33 92.66 L 140.79 92.58 L 141.25 92.50 L 141.71 92.43 L 142.17 92.35 L 142.63 92.27 L 143.09 92.19 L 143.55 92.11 L 144.01 92.04 L 144.47 91.96 L 144.93 91.88 L 145.38 91.80 L 145.84 91.73 L 146.30 91.65 L 146.76 91.58 L 147.22 91.50 L 147.68 91.42 L 148.13 91.35 L 148.59 91.27 L 149.05 91.20 L 149.51 91.12 L 149.96 91.05 L 150.42 90.97 L 150.88 90.90 L 151.33 90.83 L 151.79 90.75 L 152.25 90.68 L 152.70 90.61 L 153.16 90.53 L 153.61 90.46 L 154.07 90.39 L 154.53 90.32 L 154.98 90.24 L 155.44 90.17 L 155.89 90.10 L 156.35 90.03 L 156.80 89.96 L 157.25 89.89 L 157.71 89.82 L 158.16 89.75 L 158.62 89.68 L 159.07 89.61 L 159.52 89.54 L 159.98 89.47 L 160.43 89.40 L 160.88 89.33 L 161.33 89.26 L 161.79 89.20 L 162.24 89.13 L 162.69 89.06 L 163.14 88.99 L 163.59 88.93 L 164.04 88.86 L 164.49 88.79 L 164.94 88.73 L 165.39 88.66 L 165.84 88.59 L 166.29 88.53 L 166.74 88.46 L 167.19 88.40 L 167.64 88.33 L 168.09 88.27 L 168.54 88.20 L 168.99 88.14 L 169.43 88.08 L 169.88 88.01 L 170.33 87.95 L 170.77 87.88 L 171.22 87.82 L 171.67 87.76 L 172.11 87.70 L 172.56 87.64 L 173.00 87.57 L 173.45 87.51 L 173.89 87.45 L 174.34 87.39 L 174.78 87.33 L 175.23 87.27 L 175.67 87.21 L 176.11 87.15 L 176.56 87.09 L 177.00 87.03 L 177.44 86.97 L 177.88 86.91 L 178.32 86.85 L 178.76 86.79 L 179.21 86.74 L 179.65 86.68 L 180.09 86.62 L 180.53 86.56 L 180.97 86.51 L 181.40 86.45 L 181.84 86.39 L 182.28 86.34 L 182.72 86.28 L 183.16 86.22 L 183.59 86.17 L 184.03 86.11 L 184.47 86.06 L 184.90 86.00 L 185.34 85.95 L 185.77 85.90 L 186.21 85.84 L 186.64 85.79 L 187.08 85.74 L 187.51 85.68 L 187.95 85.63 L 188.38 85.58 L 188.81 85.52 L 189.24 85.47 L 189.68 85.42 L 190.11 85.37 L 190.54 85.32 L 190.97 85.27 L 191.40 85.22 L 191.83 85.17 L 192.26 85.12 L 192.69 85.07 L 193.11 85.02 L 193.54 84.97 L 193.97 84.92 L 194.40 84.87 L 194.82 84.82 L 195.25 84.77 L 195.68 84.73 L 196.10 84.68 L 196.53 84.63 L 196.95 84.59 L 197.37 84.54 L 197.80 84.49 L 198.22 84.45 L 198.64 84.40 L 198.64 84.40 L 198.85 84.38 L 199.05 84.36 L 199.25 84.34 L 199.45 84.32 L 199.65 84.30 L 199.84 84.28 L 200.04 84.26 L 200.23 84.25 L 200.43 84.23 L 200.62 84.21 L 200.81 84.20 L 201.00 84.19 L 201.19 84.17 L 201.37 84.16 L 201.56 84.15 L 201.74 84.14 L 201.92 84.13 L 202.10 84.12 L 202.28 84.11 L 202.45 84.10 L 202.63 84.09 L 202.80 84.08 L 202.97 84.08 L 203.14 84.07 L 203.30 84.07 L 203.47 84.06 L 203.63 84.06 L 203.79 84.06 L 203.95 84.06 L 204.11 84.06 L 204.26 84.06 L 204.42 84.06 L 204.57 84.06 L 204.72 84.06 L 204.87 84.06 L 205.01 84.07 L 205.15 84.07 L 205.29 84.07 L 205.43 84.08 L 205.57 84.09 L 205.70 84.09 L 205.83 84.10 L 205.96 84.11 L 206.09 84.12 L 206.21 84.13 L 206.34 84.14 L 206.46 84.15 L 206.58 84.16 L 206.69 84.18 L 206.80 84.19 L 206.91 84.20 L 207.02 84.22 L 207.13 84.24 L 207.23 84.25 L 207.33 84.27 L 207.43 84.29 L 207.53 84.30 L 207.62 84.32 L 207.71 84.34 L 207.80 84.36 L 207.88 84.39 L 207.96 84.41 L 208.04 84.43 L 208.12 84.45 L 208.20 84.48 L 208.27 84.50 L 208.34 84.53 L 208.41 84.55 L 208.47 84.58 L 208.53 84.61 L 208.59 84.64 L 208.65 84.66 L 208.70 84.69 L 208.75 84.72 L 208.80 84.75 L 208.84 84.78 L 208.89 84.82 L 208.93 84.85 L 208.96 84.88 L 209.00 84.91 L 209.03 84.95 L 209.06 84.98 L 209.08 85.02 L 209.10 85.05 L 209.13 85.09 L 209.14 85.13 L 209.16 85.17 L 209.17 85.20 L 209.18 85.24 L 209.82 88.54 Z" fill="#FBF7F0"/></svg>